# xmcd CD database file
#
# Track frame offsets:
#	150
#	25532
#	39702
#
# Disc length: 865 seconds
#
# Revision: 0
# Processed by: cddbd v1.5.1PL0 Copyright (c) Steve Scherf et al.
# Submitted via: CDex 1.51
#
DISCID=19035f03
DTITLE=Alfa - サンオイル
DYEAR=2001
DGENRE=JPop
TTITLE0=サンオイル
TTITLE1=デルタ
TTITLE2=フジヤマ (DJ TASAKA MIX)
EXTD=YEAR: 2001
EXTT0=
EXTT1=
EXTT2=
PLAYORDER=
